<svg xmlns="http://www.w3.org/2000/svg" xmlns:rdkit="http://www.rdkit.org/xml" xmlns:xlink="http://www.w3.org/1999/xlink" version="1.1" baseProfile="full" xml:space="preserve" width="600px" height="200px" viewBox="0 0 600 200">
<!-- END OF HEADER -->
<rect style="opacity:0.0;fill:#FFFFFF;stroke:none" width="600.0" height="200.0" x="0.0" y="0.0"> </rect>
<rect style="opacity:0.0;fill:#FFFFFF;stroke:none" width="600.0" height="200.0" x="0.0" y="0.0"> </rect>
<rect style="opacity:0.0;fill:#FFFFFF;stroke:none" width="600.0" height="200.0" x="0.0" y="0.0"> </rect>
<rect style="opacity:0.0;fill:#FFFFFF;stroke:none" width="600.0" height="200.0" x="0.0" y="0.0"> </rect>
<path class="bond-0 atom-0 atom-1" d="M 117.7,137.9 L 116.3,131.2" style="fill:none;fill-rule:evenodd;stroke:#000000;stroke-width:2.0px;stroke-linecap:butt;stroke-linejoin:miter;stroke-opacity:1"/>
<path class="bond-0 atom-0 atom-1" d="M 116.3,131.2 L 114.8,124.5" style="fill:none;fill-rule:evenodd;stroke:#0000FF;stroke-width:2.0px;stroke-linecap:butt;stroke-linejoin:miter;stroke-opacity:1"/>
<path class="bond-1 atom-1 atom-2" d="M 116.4,119.3 L 120.8,114.4" style="fill:none;fill-rule:evenodd;stroke:#0000FF;stroke-width:2.0px;stroke-linecap:butt;stroke-linejoin:miter;stroke-opacity:1"/>
<path class="bond-1 atom-1 atom-2" d="M 120.8,114.4 L 125.2,109.5" style="fill:none;fill-rule:evenodd;stroke:#000000;stroke-width:2.0px;stroke-linecap:butt;stroke-linejoin:miter;stroke-opacity:1"/>
<path class="bond-26 atom-26 atom-1" d="M 101.3,116.1 L 112.1,120.8" style="fill:none;fill-rule:evenodd;stroke:#0000FF;stroke-width:2.0px;stroke-linecap:butt;stroke-linejoin:miter;stroke-opacity:1"/>
<path class="bond-2 atom-2 atom-3" d="M 125.2,109.5 L 116.9,95.2" style="fill:none;fill-rule:evenodd;stroke:#000000;stroke-width:2.0px;stroke-linecap:butt;stroke-linejoin:miter;stroke-opacity:1"/>
<path class="bond-2 atom-2 atom-3" d="M 121.1,109.0 L 115.3,99.0" style="fill:none;fill-rule:evenodd;stroke:#000000;stroke-width:2.0px;stroke-linecap:butt;stroke-linejoin:miter;stroke-opacity:1"/>
<path class="bond-3 atom-3 atom-4" d="M 116.9,95.2 L 100.8,98.7" style="fill:none;fill-rule:evenodd;stroke:#000000;stroke-width:2.0px;stroke-linecap:butt;stroke-linejoin:miter;stroke-opacity:1"/>
<path class="bond-27 atom-25 atom-3" d="M 122.0,79.5 L 116.9,95.2" style="fill:none;fill-rule:evenodd;stroke:#000000;stroke-width:2.0px;stroke-linecap:butt;stroke-linejoin:miter;stroke-opacity:1"/>
<path class="bond-4 atom-4 atom-5" d="M 100.8,98.7 L 96.4,93.8" style="fill:none;fill-rule:evenodd;stroke:#000000;stroke-width:2.0px;stroke-linecap:butt;stroke-linejoin:miter;stroke-opacity:1"/>
<path class="bond-4 atom-4 atom-5" d="M 96.4,93.8 L 91.9,88.9" style="fill:none;fill-rule:evenodd;stroke:#0000FF;stroke-width:2.0px;stroke-linecap:butt;stroke-linejoin:miter;stroke-opacity:1"/>
<path class="bond-25 atom-4 atom-26" d="M 100.8,98.7 L 100.1,105.5" style="fill:none;fill-rule:evenodd;stroke:#000000;stroke-width:2.0px;stroke-linecap:butt;stroke-linejoin:miter;stroke-opacity:1"/>
<path class="bond-25 atom-4 atom-26" d="M 100.1,105.5 L 99.4,112.3" style="fill:none;fill-rule:evenodd;stroke:#0000FF;stroke-width:2.0px;stroke-linecap:butt;stroke-linejoin:miter;stroke-opacity:1"/>
<path class="bond-25 atom-4 atom-26" d="M 103.9,101.1 L 103.4,105.8" style="fill:none;fill-rule:evenodd;stroke:#000000;stroke-width:2.0px;stroke-linecap:butt;stroke-linejoin:miter;stroke-opacity:1"/>
<path class="bond-25 atom-4 atom-26" d="M 103.4,105.8 L 102.9,110.6" style="fill:none;fill-rule:evenodd;stroke:#0000FF;stroke-width:2.0px;stroke-linecap:butt;stroke-linejoin:miter;stroke-opacity:1"/>
<path class="bond-5 atom-5 atom-6" d="M 90.6,83.7 L 92.7,77.3" style="fill:none;fill-rule:evenodd;stroke:#0000FF;stroke-width:2.0px;stroke-linecap:butt;stroke-linejoin:miter;stroke-opacity:1"/>
<path class="bond-5 atom-5 atom-6" d="M 92.7,77.3 L 94.8,70.8" style="fill:none;fill-rule:evenodd;stroke:#000000;stroke-width:2.0px;stroke-linecap:butt;stroke-linejoin:miter;stroke-opacity:1"/>
<path class="bond-5 atom-5 atom-6" d="M 94.4,82.8 L 95.8,78.3" style="fill:none;fill-rule:evenodd;stroke:#0000FF;stroke-width:2.0px;stroke-linecap:butt;stroke-linejoin:miter;stroke-opacity:1"/>
<path class="bond-5 atom-5 atom-6" d="M 95.8,78.3 L 97.3,73.7" style="fill:none;fill-rule:evenodd;stroke:#000000;stroke-width:2.0px;stroke-linecap:butt;stroke-linejoin:miter;stroke-opacity:1"/>
<path class="bond-6 atom-6 atom-7" d="M 94.8,70.8 L 90.3,65.9" style="fill:none;fill-rule:evenodd;stroke:#000000;stroke-width:2.0px;stroke-linecap:butt;stroke-linejoin:miter;stroke-opacity:1"/>
<path class="bond-6 atom-6 atom-7" d="M 90.3,65.9 L 85.9,61.0" style="fill:none;fill-rule:evenodd;stroke:#0000FF;stroke-width:2.0px;stroke-linecap:butt;stroke-linejoin:miter;stroke-opacity:1"/>
<path class="bond-15 atom-6 atom-16" d="M 94.8,70.8 L 101.7,69.3" style="fill:none;fill-rule:evenodd;stroke:#000000;stroke-width:2.0px;stroke-linecap:butt;stroke-linejoin:miter;stroke-opacity:1"/>
<path class="bond-15 atom-6 atom-16" d="M 101.7,69.3 L 108.7,67.8" style="fill:none;fill-rule:evenodd;stroke:#0000FF;stroke-width:2.0px;stroke-linecap:butt;stroke-linejoin:miter;stroke-opacity:1"/>
<path class="bond-7 atom-7 atom-8" d="M 81.5,59.0 L 74.6,60.5" style="fill:none;fill-rule:evenodd;stroke:#0000FF;stroke-width:2.0px;stroke-linecap:butt;stroke-linejoin:miter;stroke-opacity:1"/>
<path class="bond-7 atom-7 atom-8" d="M 74.6,60.5 L 67.6,62.0" style="fill:none;fill-rule:evenodd;stroke:#000000;stroke-width:2.0px;stroke-linecap:butt;stroke-linejoin:miter;stroke-opacity:1"/>
<path class="bond-8 atom-8 atom-9" d="M 67.6,62.0 L 56.5,49.8" style="fill:none;fill-rule:evenodd;stroke:#000000;stroke-width:2.0px;stroke-linecap:butt;stroke-linejoin:miter;stroke-opacity:1"/>
<path class="bond-9 atom-9 atom-10" d="M 56.5,49.8 L 40.4,53.3" style="fill:none;fill-rule:evenodd;stroke:#000000;stroke-width:2.0px;stroke-linecap:butt;stroke-linejoin:miter;stroke-opacity:1"/>
<path class="bond-10 atom-10 atom-11" d="M 40.4,53.3 L 29.3,41.1" style="fill:none;fill-rule:evenodd;stroke:#000000;stroke-width:2.0px;stroke-linecap:butt;stroke-linejoin:miter;stroke-opacity:1"/>
<path class="bond-10 atom-10 atom-11" d="M 36.3,53.7 L 28.6,45.1" style="fill:none;fill-rule:evenodd;stroke:#000000;stroke-width:2.0px;stroke-linecap:butt;stroke-linejoin:miter;stroke-opacity:1"/>
<path class="bond-28 atom-15 atom-10" d="M 35.4,69.0 L 40.4,53.3" style="fill:none;fill-rule:evenodd;stroke:#000000;stroke-width:2.0px;stroke-linecap:butt;stroke-linejoin:miter;stroke-opacity:1"/>
<path class="bond-11 atom-11 atom-12" d="M 29.3,41.1 L 13.2,44.6" style="fill:none;fill-rule:evenodd;stroke:#000000;stroke-width:2.0px;stroke-linecap:butt;stroke-linejoin:miter;stroke-opacity:1"/>
<path class="bond-12 atom-12 atom-13" d="M 13.2,44.6 L 8.2,60.3" style="fill:none;fill-rule:evenodd;stroke:#000000;stroke-width:2.0px;stroke-linecap:butt;stroke-linejoin:miter;stroke-opacity:1"/>
<path class="bond-12 atom-12 atom-13" d="M 15.6,47.9 L 12.1,58.9" style="fill:none;fill-rule:evenodd;stroke:#000000;stroke-width:2.0px;stroke-linecap:butt;stroke-linejoin:miter;stroke-opacity:1"/>
<path class="bond-13 atom-13 atom-14" d="M 8.2,60.3 L 19.3,72.5" style="fill:none;fill-rule:evenodd;stroke:#000000;stroke-width:2.0px;stroke-linecap:butt;stroke-linejoin:miter;stroke-opacity:1"/>
<path class="bond-14 atom-14 atom-15" d="M 19.3,72.5 L 35.4,69.0" style="fill:none;fill-rule:evenodd;stroke:#000000;stroke-width:2.0px;stroke-linecap:butt;stroke-linejoin:miter;stroke-opacity:1"/>
<path class="bond-14 atom-14 atom-15" d="M 21.0,68.7 L 32.3,66.3" style="fill:none;fill-rule:evenodd;stroke:#000000;stroke-width:2.0px;stroke-linecap:butt;stroke-linejoin:miter;stroke-opacity:1"/>
<path class="bond-16 atom-16 atom-17" d="M 112.5,64.5 L 117.6,55.7" style="fill:none;fill-rule:evenodd;stroke:#0000FF;stroke-width:2.0px;stroke-linecap:butt;stroke-linejoin:miter;stroke-opacity:1"/>
<path class="bond-29 atom-25 atom-16" d="M 122.0,79.5 L 117.5,74.6" style="fill:none;fill-rule:evenodd;stroke:#000000;stroke-width:2.0px;stroke-linecap:butt;stroke-linejoin:miter;stroke-opacity:1"/>
<path class="bond-29 atom-25 atom-16" d="M 117.5,74.6 L 113.1,69.7" style="fill:none;fill-rule:evenodd;stroke:#0000FF;stroke-width:2.0px;stroke-linecap:butt;stroke-linejoin:miter;stroke-opacity:1"/>
<path class="bond-17 atom-17 atom-18" d="M 121.3,53.4 L 128.3,54.9" style="fill:none;fill-rule:evenodd;stroke:#0000FF;stroke-width:2.0px;stroke-linecap:butt;stroke-linejoin:miter;stroke-opacity:1"/>
<path class="bond-17 atom-17 atom-18" d="M 128.3,54.9 L 135.2,56.4" style="fill:none;fill-rule:evenodd;stroke:#000000;stroke-width:2.0px;stroke-linecap:butt;stroke-linejoin:miter;stroke-opacity:1"/>
<path class="bond-17 atom-17 atom-18" d="M 122.7,57.1 L 127.6,58.1" style="fill:none;fill-rule:evenodd;stroke:#0000FF;stroke-width:2.0px;stroke-linecap:butt;stroke-linejoin:miter;stroke-opacity:1"/>
<path class="bond-17 atom-17 atom-18" d="M 127.6,58.1 L 132.5,59.2" style="fill:none;fill-rule:evenodd;stroke:#000000;stroke-width:2.0px;stroke-linecap:butt;stroke-linejoin:miter;stroke-opacity:1"/>
<path class="bond-18 atom-18 atom-19" d="M 135.2,56.4 L 147.4,45.3" style="fill:none;fill-rule:evenodd;stroke:#000000;stroke-width:2.0px;stroke-linecap:butt;stroke-linejoin:miter;stroke-opacity:1"/>
<path class="bond-23 atom-18 atom-24" d="M 135.2,56.4 L 136.0,63.2" style="fill:none;fill-rule:evenodd;stroke:#000000;stroke-width:2.0px;stroke-linecap:butt;stroke-linejoin:miter;stroke-opacity:1"/>
<path class="bond-23 atom-18 atom-24" d="M 136.0,63.2 L 136.7,70.0" style="fill:none;fill-rule:evenodd;stroke:#0000FF;stroke-width:2.0px;stroke-linecap:butt;stroke-linejoin:miter;stroke-opacity:1"/>
<path class="bond-19 atom-19 atom-20" d="M 147.4,45.3 L 145.7,28.9" style="fill:none;fill-rule:evenodd;stroke:#000000;stroke-width:2.0px;stroke-linecap:butt;stroke-linejoin:miter;stroke-opacity:1"/>
<path class="bond-19 atom-19 atom-20" d="M 150.5,42.5 L 149.2,31.0" style="fill:none;fill-rule:evenodd;stroke:#000000;stroke-width:2.0px;stroke-linecap:butt;stroke-linejoin:miter;stroke-opacity:1"/>
<path class="bond-30 atom-23 atom-19" d="M 161.0,48.1 L 154.2,46.7" style="fill:none;fill-rule:evenodd;stroke:#FF0000;stroke-width:2.0px;stroke-linecap:butt;stroke-linejoin:miter;stroke-opacity:1"/>
<path class="bond-30 atom-23 atom-19" d="M 154.2,46.7 L 147.4,45.3" style="fill:none;fill-rule:evenodd;stroke:#000000;stroke-width:2.0px;stroke-linecap:butt;stroke-linejoin:miter;stroke-opacity:1"/>
<path class="bond-20 atom-20 atom-21" d="M 145.7,28.9 L 160.7,22.1" style="fill:none;fill-rule:evenodd;stroke:#000000;stroke-width:2.0px;stroke-linecap:butt;stroke-linejoin:miter;stroke-opacity:1"/>
<path class="bond-21 atom-21 atom-22" d="M 160.7,22.1 L 171.8,34.4" style="fill:none;fill-rule:evenodd;stroke:#000000;stroke-width:2.0px;stroke-linecap:butt;stroke-linejoin:miter;stroke-opacity:1"/>
<path class="bond-21 atom-21 atom-22" d="M 159.9,26.2 L 167.7,34.7" style="fill:none;fill-rule:evenodd;stroke:#000000;stroke-width:2.0px;stroke-linecap:butt;stroke-linejoin:miter;stroke-opacity:1"/>
<path class="bond-22 atom-22 atom-23" d="M 171.8,34.4 L 168.5,40.1" style="fill:none;fill-rule:evenodd;stroke:#000000;stroke-width:2.0px;stroke-linecap:butt;stroke-linejoin:miter;stroke-opacity:1"/>
<path class="bond-22 atom-22 atom-23" d="M 168.5,40.1 L 165.2,45.9" style="fill:none;fill-rule:evenodd;stroke:#FF0000;stroke-width:2.0px;stroke-linecap:butt;stroke-linejoin:miter;stroke-opacity:1"/>
<path class="bond-24 atom-24 atom-25" d="M 134.8,73.7 L 128.4,76.6" style="fill:none;fill-rule:evenodd;stroke:#0000FF;stroke-width:2.0px;stroke-linecap:butt;stroke-linejoin:miter;stroke-opacity:1"/>
<path class="bond-24 atom-24 atom-25" d="M 128.4,76.6 L 122.0,79.5" style="fill:none;fill-rule:evenodd;stroke:#000000;stroke-width:2.0px;stroke-linecap:butt;stroke-linejoin:miter;stroke-opacity:1"/>
<path class="bond-24 atom-24 atom-25" d="M 131.5,71.6 L 127.0,73.6" style="fill:none;fill-rule:evenodd;stroke:#0000FF;stroke-width:2.0px;stroke-linecap:butt;stroke-linejoin:miter;stroke-opacity:1"/>
<path class="bond-24 atom-24 atom-25" d="M 127.0,73.6 L 122.5,75.6" style="fill:none;fill-rule:evenodd;stroke:#000000;stroke-width:2.0px;stroke-linecap:butt;stroke-linejoin:miter;stroke-opacity:1"/>
<path class="atom-1" d="M 113.2 119.4 L 114.7 121.9 Q 114.9 122.1, 115.1 122.6 Q 115.4 123.0, 115.4 123.0 L 115.4 119.4 L 116.0 119.4 L 116.0 124.1 L 115.4 124.1 L 113.7 121.4 Q 113.5 121.1, 113.3 120.7 Q 113.1 120.3, 113.1 120.2 L 113.1 124.1 L 112.5 124.1 L 112.5 119.4 L 113.2 119.4 " fill="#0000FF"/>
<path class="atom-5" d="M 88.7 84.1 L 90.2 86.6 Q 90.4 86.9, 90.6 87.3 Q 90.9 87.7, 90.9 87.8 L 90.9 84.1 L 91.5 84.1 L 91.5 88.8 L 90.9 88.8 L 89.2 86.1 Q 89.0 85.8, 88.8 85.4 Q 88.6 85.1, 88.6 85.0 L 88.6 88.8 L 88.0 88.8 L 88.0 84.1 L 88.7 84.1 " fill="#0000FF"/>
<path class="atom-7" d="M 82.7 56.2 L 84.2 58.7 Q 84.4 58.9, 84.6 59.4 Q 84.8 59.8, 84.9 59.9 L 84.9 56.2 L 85.5 56.2 L 85.5 60.9 L 84.8 60.9 L 83.2 58.2 Q 83.0 57.9, 82.8 57.5 Q 82.6 57.2, 82.5 57.0 L 82.5 60.9 L 81.9 60.9 L 81.9 56.2 L 82.7 56.2 " fill="#0000FF"/>
<path class="atom-7" d="M 81.9 51.1 L 82.5 51.1 L 82.5 53.1 L 84.9 53.1 L 84.9 51.1 L 85.5 51.1 L 85.5 55.8 L 84.9 55.8 L 84.9 53.6 L 82.5 53.6 L 82.5 55.8 L 81.9 55.8 L 81.9 51.1 " fill="#0000FF"/>
<path class="atom-16" d="M 109.9 65.0 L 111.4 67.4 Q 111.5 67.7, 111.8 68.1 Q 112.0 68.6, 112.0 68.6 L 112.0 65.0 L 112.7 65.0 L 112.7 69.6 L 112.0 69.6 L 110.4 66.9 Q 110.2 66.6, 110.0 66.2 Q 109.8 65.9, 109.7 65.8 L 109.7 69.6 L 109.1 69.6 L 109.1 65.0 L 109.9 65.0 " fill="#0000FF"/>
<path class="atom-17" d="M 118.1 50.7 L 119.6 53.1 Q 119.7 53.4, 120.0 53.8 Q 120.2 54.3, 120.2 54.3 L 120.2 50.7 L 120.9 50.7 L 120.9 55.3 L 120.2 55.3 L 118.6 52.6 Q 118.4 52.3, 118.2 51.9 Q 118.0 51.6, 117.9 51.5 L 117.9 55.3 L 117.3 55.3 L 117.3 50.7 L 118.1 50.7 " fill="#0000FF"/>
<path class="atom-23" d="M 161.4 48.7 Q 161.4 47.6, 162.0 46.9 Q 162.5 46.3, 163.6 46.3 Q 164.6 46.3, 165.2 46.9 Q 165.7 47.6, 165.7 48.7 Q 165.7 49.8, 165.2 50.5 Q 164.6 51.1, 163.6 51.1 Q 162.6 51.1, 162.0 50.5 Q 161.4 49.8, 161.4 48.7 M 163.6 50.6 Q 164.3 50.6, 164.7 50.1 Q 165.1 49.6, 165.1 48.7 Q 165.1 47.8, 164.7 47.3 Q 164.3 46.8, 163.6 46.8 Q 162.9 46.8, 162.5 47.3 Q 162.1 47.8, 162.1 48.7 Q 162.1 49.6, 162.5 50.1 Q 162.9 50.6, 163.6 50.6 " fill="#FF0000"/>
<path class="atom-24" d="M 136.0 70.4 L 137.5 72.9 Q 137.7 73.1, 137.9 73.6 Q 138.1 74.0, 138.2 74.0 L 138.2 70.4 L 138.8 70.4 L 138.8 75.1 L 138.1 75.1 L 136.5 72.4 Q 136.3 72.1, 136.1 71.7 Q 135.9 71.3, 135.8 71.2 L 135.8 75.1 L 135.2 75.1 L 135.2 70.4 L 136.0 70.4 " fill="#0000FF"/>
<path class="atom-26" d="M 98.1 112.8 L 99.6 115.2 Q 99.8 115.5, 100.0 115.9 Q 100.3 116.4, 100.3 116.4 L 100.3 112.8 L 100.9 112.8 L 100.9 117.4 L 100.3 117.4 L 98.6 114.7 Q 98.4 114.4, 98.2 114.0 Q 98.0 113.7, 98.0 113.6 L 98.0 117.4 L 97.4 117.4 L 97.4 112.8 L 98.1 112.8 " fill="#0000FF"/>
<path d="M 67.5 188.1 Q 67.5 185.3, 68.8 183.8 Q 70.2 182.3, 72.7 182.3 Q 75.0 182.3, 76.3 184.0 L 75.2 184.8 Q 74.3 183.6, 72.7 183.6 Q 71.0 183.6, 70.0 184.8 Q 69.1 185.9, 69.1 188.1 Q 69.1 190.3, 70.1 191.5 Q 71.0 192.6, 72.8 192.6 Q 74.1 192.6, 75.5 191.9 L 76.0 193.1 Q 75.4 193.5, 74.5 193.7 Q 73.6 193.9, 72.6 193.9 Q 70.2 193.9, 68.8 192.4 Q 67.5 190.9, 67.5 188.1 " fill="#000000"/>
<path d="M 77.6 181.6 L 79.1 181.6 L 79.1 193.8 L 77.6 193.8 L 77.6 181.6 " fill="#000000"/>
<path d="M 87.3 185.6 L 87.3 193.8 L 86.1 193.8 L 85.9 192.6 Q 84.8 193.9, 83.1 193.9 Q 81.7 193.9, 81.0 193.2 Q 80.3 192.4, 80.3 191.0 L 80.3 185.6 L 81.8 185.6 L 81.8 190.9 Q 81.8 191.9, 82.2 192.3 Q 82.6 192.7, 83.4 192.7 Q 84.2 192.7, 84.8 192.4 Q 85.4 192.1, 85.8 191.4 L 85.8 185.6 L 87.3 185.6 " fill="#000000"/>
<path d="M 88.6 192.1 Q 89.3 192.4, 89.8 192.5 Q 90.3 192.7, 90.9 192.7 Q 91.6 192.7, 92.0 192.4 Q 92.4 192.1, 92.4 191.5 Q 92.4 191.1, 92.2 190.9 Q 92.0 190.6, 91.7 190.5 Q 91.5 190.4, 90.8 190.2 Q 90.7 190.2, 89.9 189.9 Q 89.2 189.6, 88.8 189.1 Q 88.4 188.6, 88.4 187.8 Q 88.4 186.8, 89.2 186.1 Q 89.9 185.4, 91.4 185.4 Q 92.0 185.4, 92.6 185.6 Q 93.1 185.7, 93.8 185.9 L 93.4 187.1 Q 92.8 186.9, 92.4 186.8 Q 91.9 186.7, 91.4 186.7 Q 90.7 186.7, 90.3 187.0 Q 89.9 187.3, 89.9 187.7 Q 89.9 188.2, 90.2 188.4 Q 90.5 188.6, 91.2 188.9 Q 91.4 188.9, 91.5 189.0 L 91.9 189.1 Q 92.6 189.3, 93.0 189.6 Q 93.4 189.8, 93.7 190.2 Q 93.9 190.7, 93.9 191.4 Q 93.9 192.6, 93.1 193.3 Q 92.3 193.9, 90.9 193.9 Q 90.1 193.9, 89.5 193.8 Q 88.8 193.6, 88.1 193.3 L 88.6 192.1 " fill="#000000"/>
<path d="M 94.4 186.7 L 94.4 185.6 L 96.0 185.6 L 96.2 183.2 L 97.4 183.2 L 97.4 185.6 L 99.9 185.6 L 99.9 186.7 L 97.4 186.7 L 97.4 191.3 Q 97.4 192.7, 98.6 192.7 Q 99.0 192.7, 99.7 192.5 L 100.0 193.5 Q 99.1 193.9, 98.3 193.9 Q 97.2 193.9, 96.5 193.2 Q 95.9 192.6, 95.9 191.3 L 95.9 186.7 L 94.4 186.7 " fill="#000000"/>
<path d="M 100.7 189.7 Q 100.7 187.6, 101.7 186.5 Q 102.7 185.4, 104.6 185.4 Q 106.4 185.4, 107.2 186.5 Q 108.0 187.6, 108.0 189.6 L 108.0 189.9 L 102.3 189.9 Q 102.3 191.3, 102.9 192.0 Q 103.5 192.7, 104.7 192.7 Q 105.4 192.7, 105.9 192.6 Q 106.5 192.4, 107.3 192.1 L 107.7 193.1 Q 106.9 193.5, 106.1 193.7 Q 105.4 193.9, 104.6 193.9 Q 102.8 193.9, 101.8 192.8 Q 100.7 191.7, 100.7 189.7 M 104.6 186.6 Q 103.6 186.6, 103.1 187.1 Q 102.5 187.7, 102.3 188.7 L 106.4 188.7 Q 106.3 187.6, 105.9 187.1 Q 105.4 186.6, 104.6 186.6 " fill="#000000"/>
<path d="M 110.6 185.6 L 110.8 186.7 Q 111.6 185.4, 113.0 185.4 Q 113.5 185.4, 114.1 185.6 L 113.9 186.9 Q 113.2 186.8, 112.8 186.8 Q 112.1 186.8, 111.7 187.0 Q 111.2 187.3, 110.9 187.9 L 110.9 193.8 L 109.4 193.8 L 109.4 185.6 L 110.6 185.6 " fill="#000000"/>
<path d="" fill="#000000"/>
<path d="M 119.6 192.5 L 122.1 192.5 L 122.1 184.0 L 119.3 184.9 L 119.0 183.9 L 122.4 182.4 L 123.6 182.6 L 123.6 192.5 L 125.8 192.5 L 125.8 193.8 L 119.6 193.8 L 119.6 192.5 " fill="#000000"/>
<path class="bond-0 atom-0 atom-1" d="M 318.4,137.7 L 317.0,131.0" style="fill:none;fill-rule:evenodd;stroke:#000000;stroke-width:2.0px;stroke-linecap:butt;stroke-linejoin:miter;stroke-opacity:1"/>
<path class="bond-0 atom-0 atom-1" d="M 317.0,131.0 L 315.6,124.3" style="fill:none;fill-rule:evenodd;stroke:#0000FF;stroke-width:2.0px;stroke-linecap:butt;stroke-linejoin:miter;stroke-opacity:1"/>
<path class="bond-1 atom-1 atom-2" d="M 317.2,119.2 L 321.7,114.3" style="fill:none;fill-rule:evenodd;stroke:#0000FF;stroke-width:2.0px;stroke-linecap:butt;stroke-linejoin:miter;stroke-opacity:1"/>
<path class="bond-1 atom-1 atom-2" d="M 321.7,114.3 L 326.1,109.4" style="fill:none;fill-rule:evenodd;stroke:#000000;stroke-width:2.0px;stroke-linecap:butt;stroke-linejoin:miter;stroke-opacity:1"/>
<path class="bond-27 atom-27 atom-1" d="M 302.2,115.8 L 312.9,120.6" style="fill:none;fill-rule:evenodd;stroke:#0000FF;stroke-width:2.0px;stroke-linecap:butt;stroke-linejoin:miter;stroke-opacity:1"/>
<path class="bond-2 atom-2 atom-3" d="M 326.1,109.4 L 318.0,95.0" style="fill:none;fill-rule:evenodd;stroke:#000000;stroke-width:2.0px;stroke-linecap:butt;stroke-linejoin:miter;stroke-opacity:1"/>
<path class="bond-2 atom-2 atom-3" d="M 322.1,108.8 L 316.3,98.8" style="fill:none;fill-rule:evenodd;stroke:#000000;stroke-width:2.0px;stroke-linecap:butt;stroke-linejoin:miter;stroke-opacity:1"/>
<path class="bond-3 atom-3 atom-4" d="M 318.0,95.0 L 301.8,98.4" style="fill:none;fill-rule:evenodd;stroke:#000000;stroke-width:2.0px;stroke-linecap:butt;stroke-linejoin:miter;stroke-opacity:1"/>
<path class="bond-28 atom-26 atom-3" d="M 323.1,79.4 L 318.0,95.0" style="fill:none;fill-rule:evenodd;stroke:#000000;stroke-width:2.0px;stroke-linecap:butt;stroke-linejoin:miter;stroke-opacity:1"/>
<path class="bond-4 atom-4 atom-5" d="M 301.8,98.4 L 297.4,93.5" style="fill:none;fill-rule:evenodd;stroke:#000000;stroke-width:2.0px;stroke-linecap:butt;stroke-linejoin:miter;stroke-opacity:1"/>
<path class="bond-4 atom-4 atom-5" d="M 297.4,93.5 L 293.0,88.5" style="fill:none;fill-rule:evenodd;stroke:#0000FF;stroke-width:2.0px;stroke-linecap:butt;stroke-linejoin:miter;stroke-opacity:1"/>
<path class="bond-26 atom-4 atom-27" d="M 301.8,98.4 L 301.1,105.2" style="fill:none;fill-rule:evenodd;stroke:#000000;stroke-width:2.0px;stroke-linecap:butt;stroke-linejoin:miter;stroke-opacity:1"/>
<path class="bond-26 atom-4 atom-27" d="M 301.1,105.2 L 300.3,112.0" style="fill:none;fill-rule:evenodd;stroke:#0000FF;stroke-width:2.0px;stroke-linecap:butt;stroke-linejoin:miter;stroke-opacity:1"/>
<path class="bond-26 atom-4 atom-27" d="M 304.9,100.8 L 304.4,105.6" style="fill:none;fill-rule:evenodd;stroke:#000000;stroke-width:2.0px;stroke-linecap:butt;stroke-linejoin:miter;stroke-opacity:1"/>
<path class="bond-26 atom-4 atom-27" d="M 304.4,105.6 L 303.8,110.4" style="fill:none;fill-rule:evenodd;stroke:#0000FF;stroke-width:2.0px;stroke-linecap:butt;stroke-linejoin:miter;stroke-opacity:1"/>
<path class="bond-5 atom-5 atom-6" d="M 291.8,83.4 L 293.9,76.9" style="fill:none;fill-rule:evenodd;stroke:#0000FF;stroke-width:2.0px;stroke-linecap:butt;stroke-linejoin:miter;stroke-opacity:1"/>
<path class="bond-5 atom-5 atom-6" d="M 293.9,76.9 L 296.0,70.4" style="fill:none;fill-rule:evenodd;stroke:#000000;stroke-width:2.0px;stroke-linecap:butt;stroke-linejoin:miter;stroke-opacity:1"/>
<path class="bond-5 atom-5 atom-6" d="M 295.5,82.5 L 297.0,77.9" style="fill:none;fill-rule:evenodd;stroke:#0000FF;stroke-width:2.0px;stroke-linecap:butt;stroke-linejoin:miter;stroke-opacity:1"/>
<path class="bond-5 atom-5 atom-6" d="M 297.0,77.9 L 298.5,73.4" style="fill:none;fill-rule:evenodd;stroke:#000000;stroke-width:2.0px;stroke-linecap:butt;stroke-linejoin:miter;stroke-opacity:1"/>
<path class="bond-6 atom-6 atom-7" d="M 296.0,70.4 L 291.6,65.5" style="fill:none;fill-rule:evenodd;stroke:#000000;stroke-width:2.0px;stroke-linecap:butt;stroke-linejoin:miter;stroke-opacity:1"/>
<path class="bond-6 atom-6 atom-7" d="M 291.6,65.5 L 287.2,60.6" style="fill:none;fill-rule:evenodd;stroke:#0000FF;stroke-width:2.0px;stroke-linecap:butt;stroke-linejoin:miter;stroke-opacity:1"/>
<path class="bond-16 atom-6 atom-17" d="M 296.0,70.4 L 303.0,69.0" style="fill:none;fill-rule:evenodd;stroke:#000000;stroke-width:2.0px;stroke-linecap:butt;stroke-linejoin:miter;stroke-opacity:1"/>
<path class="bond-16 atom-6 atom-17" d="M 303.0,69.0 L 310.0,67.5" style="fill:none;fill-rule:evenodd;stroke:#0000FF;stroke-width:2.0px;stroke-linecap:butt;stroke-linejoin:miter;stroke-opacity:1"/>
<path class="bond-7 atom-7 atom-8" d="M 282.8,58.6 L 275.9,60.1" style="fill:none;fill-rule:evenodd;stroke:#0000FF;stroke-width:2.0px;stroke-linecap:butt;stroke-linejoin:miter;stroke-opacity:1"/>
<path class="bond-7 atom-7 atom-8" d="M 275.9,60.1 L 268.9,61.5" style="fill:none;fill-rule:evenodd;stroke:#000000;stroke-width:2.0px;stroke-linecap:butt;stroke-linejoin:miter;stroke-opacity:1"/>
<path class="bond-8 atom-8 atom-9" d="M 267.3,61.0 L 265.2,67.4" style="fill:none;fill-rule:evenodd;stroke:#000000;stroke-width:2.0px;stroke-linecap:butt;stroke-linejoin:miter;stroke-opacity:1"/>
<path class="bond-8 atom-8 atom-9" d="M 265.2,67.4 L 263.1,73.9" style="fill:none;fill-rule:evenodd;stroke:#FF0000;stroke-width:2.0px;stroke-linecap:butt;stroke-linejoin:miter;stroke-opacity:1"/>
<path class="bond-8 atom-8 atom-9" d="M 270.5,62.0 L 268.3,68.5" style="fill:none;fill-rule:evenodd;stroke:#000000;stroke-width:2.0px;stroke-linecap:butt;stroke-linejoin:miter;stroke-opacity:1"/>
<path class="bond-8 atom-8 atom-9" d="M 268.3,68.5 L 266.2,74.9" style="fill:none;fill-rule:evenodd;stroke:#FF0000;stroke-width:2.0px;stroke-linecap:butt;stroke-linejoin:miter;stroke-opacity:1"/>
<path class="bond-9 atom-8 atom-10" d="M 268.9,61.5 L 264.5,56.6" style="fill:none;fill-rule:evenodd;stroke:#000000;stroke-width:2.0px;stroke-linecap:butt;stroke-linejoin:miter;stroke-opacity:1"/>
<path class="bond-9 atom-8 atom-10" d="M 264.5,56.6 L 260.1,51.7" style="fill:none;fill-rule:evenodd;stroke:#0000FF;stroke-width:2.0px;stroke-linecap:butt;stroke-linejoin:miter;stroke-opacity:1"/>
<path class="bond-10 atom-10 atom-11" d="M 255.7,49.7 L 248.7,51.1" style="fill:none;fill-rule:evenodd;stroke:#0000FF;stroke-width:2.0px;stroke-linecap:butt;stroke-linejoin:miter;stroke-opacity:1"/>
<path class="bond-10 atom-10 atom-11" d="M 248.7,51.1 L 241.8,52.6" style="fill:none;fill-rule:evenodd;stroke:#000000;stroke-width:2.0px;stroke-linecap:butt;stroke-linejoin:miter;stroke-opacity:1"/>
<path class="bond-11 atom-11 atom-12" d="M 241.8,52.6 L 230.8,40.3" style="fill:none;fill-rule:evenodd;stroke:#000000;stroke-width:2.0px;stroke-linecap:butt;stroke-linejoin:miter;stroke-opacity:1"/>
<path class="bond-11 atom-11 atom-12" d="M 237.7,52.9 L 230.0,44.3" style="fill:none;fill-rule:evenodd;stroke:#000000;stroke-width:2.0px;stroke-linecap:butt;stroke-linejoin:miter;stroke-opacity:1"/>
<path class="bond-29 atom-16 atom-11" d="M 236.6,68.2 L 241.8,52.6" style="fill:none;fill-rule:evenodd;stroke:#000000;stroke-width:2.0px;stroke-linecap:butt;stroke-linejoin:miter;stroke-opacity:1"/>
<path class="bond-12 atom-12 atom-13" d="M 230.8,40.3 L 214.6,43.6" style="fill:none;fill-rule:evenodd;stroke:#000000;stroke-width:2.0px;stroke-linecap:butt;stroke-linejoin:miter;stroke-opacity:1"/>
<path class="bond-13 atom-13 atom-14" d="M 214.6,43.6 L 209.5,59.3" style="fill:none;fill-rule:evenodd;stroke:#000000;stroke-width:2.0px;stroke-linecap:butt;stroke-linejoin:miter;stroke-opacity:1"/>
<path class="bond-13 atom-13 atom-14" d="M 217.0,47.0 L 213.4,58.0" style="fill:none;fill-rule:evenodd;stroke:#000000;stroke-width:2.0px;stroke-linecap:butt;stroke-linejoin:miter;stroke-opacity:1"/>
<path class="bond-14 atom-14 atom-15" d="M 209.5,59.3 L 220.5,71.6" style="fill:none;fill-rule:evenodd;stroke:#000000;stroke-width:2.0px;stroke-linecap:butt;stroke-linejoin:miter;stroke-opacity:1"/>
<path class="bond-15 atom-15 atom-16" d="M 220.5,71.6 L 236.6,68.2" style="fill:none;fill-rule:evenodd;stroke:#000000;stroke-width:2.0px;stroke-linecap:butt;stroke-linejoin:miter;stroke-opacity:1"/>
<path class="bond-15 atom-15 atom-16" d="M 222.2,67.9 L 233.5,65.5" style="fill:none;fill-rule:evenodd;stroke:#000000;stroke-width:2.0px;stroke-linecap:butt;stroke-linejoin:miter;stroke-opacity:1"/>
<path class="bond-17 atom-17 atom-18" d="M 313.7,64.3 L 318.9,55.5" style="fill:none;fill-rule:evenodd;stroke:#0000FF;stroke-width:2.0px;stroke-linecap:butt;stroke-linejoin:miter;stroke-opacity:1"/>
<path class="bond-30 atom-26 atom-17" d="M 323.1,79.4 L 318.7,74.5" style="fill:none;fill-rule:evenodd;stroke:#000000;stroke-width:2.0px;stroke-linecap:butt;stroke-linejoin:miter;stroke-opacity:1"/>
<path class="bond-30 atom-26 atom-17" d="M 318.7,74.5 L 314.3,69.5" style="fill:none;fill-rule:evenodd;stroke:#0000FF;stroke-width:2.0px;stroke-linecap:butt;stroke-linejoin:miter;stroke-opacity:1"/>
<path class="bond-18 atom-18 atom-19" d="M 322.6,53.3 L 329.6,54.8" style="fill:none;fill-rule:evenodd;stroke:#0000FF;stroke-width:2.0px;stroke-linecap:butt;stroke-linejoin:miter;stroke-opacity:1"/>
<path class="bond-18 atom-18 atom-19" d="M 329.6,54.8 L 336.6,56.3" style="fill:none;fill-rule:evenodd;stroke:#000000;stroke-width:2.0px;stroke-linecap:butt;stroke-linejoin:miter;stroke-opacity:1"/>
<path class="bond-18 atom-18 atom-19" d="M 324.0,57.0 L 328.9,58.0" style="fill:none;fill-rule:evenodd;stroke:#0000FF;stroke-width:2.0px;stroke-linecap:butt;stroke-linejoin:miter;stroke-opacity:1"/>
<path class="bond-18 atom-18 atom-19" d="M 328.9,58.0 L 333.8,59.1" style="fill:none;fill-rule:evenodd;stroke:#000000;stroke-width:2.0px;stroke-linecap:butt;stroke-linejoin:miter;stroke-opacity:1"/>
<path class="bond-19 atom-19 atom-20" d="M 336.6,56.3 L 348.9,45.4" style="fill:none;fill-rule:evenodd;stroke:#000000;stroke-width:2.0px;stroke-linecap:butt;stroke-linejoin:miter;stroke-opacity:1"/>
<path class="bond-24 atom-19 atom-25" d="M 336.6,56.3 L 337.3,63.2" style="fill:none;fill-rule:evenodd;stroke:#000000;stroke-width:2.0px;stroke-linecap:butt;stroke-linejoin:miter;stroke-opacity:1"/>
<path class="bond-24 atom-19 atom-25" d="M 337.3,63.2 L 337.9,70.0" style="fill:none;fill-rule:evenodd;stroke:#0000FF;stroke-width:2.0px;stroke-linecap:butt;stroke-linejoin:miter;stroke-opacity:1"/>
<path class="bond-20 atom-20 atom-21" d="M 348.9,45.4 L 347.2,29.0" style="fill:none;fill-rule:evenodd;stroke:#000000;stroke-width:2.0px;stroke-linecap:butt;stroke-linejoin:miter;stroke-opacity:1"/>
<path class="bond-20 atom-20 atom-21" d="M 351.9,42.6 L 350.7,31.1" style="fill:none;fill-rule:evenodd;stroke:#000000;stroke-width:2.0px;stroke-linecap:butt;stroke-linejoin:miter;stroke-opacity:1"/>
<path class="bond-31 atom-24 atom-20" d="M 362.4,48.3 L 355.6,46.8" style="fill:none;fill-rule:evenodd;stroke:#FF0000;stroke-width:2.0px;stroke-linecap:butt;stroke-linejoin:miter;stroke-opacity:1"/>
<path class="bond-31 atom-24 atom-20" d="M 355.6,46.8 L 348.9,45.4" style="fill:none;fill-rule:evenodd;stroke:#000000;stroke-width:2.0px;stroke-linecap:butt;stroke-linejoin:miter;stroke-opacity:1"/>
<path class="bond-21 atom-21 atom-22" d="M 347.2,29.0 L 362.3,22.3" style="fill:none;fill-rule:evenodd;stroke:#000000;stroke-width:2.0px;stroke-linecap:butt;stroke-linejoin:miter;stroke-opacity:1"/>
<path class="bond-22 atom-22 atom-23" d="M 362.3,22.3 L 373.3,34.6" style="fill:none;fill-rule:evenodd;stroke:#000000;stroke-width:2.0px;stroke-linecap:butt;stroke-linejoin:miter;stroke-opacity:1"/>
<path class="bond-22 atom-22 atom-23" d="M 361.5,26.4 L 369.2,35.0" style="fill:none;fill-rule:evenodd;stroke:#000000;stroke-width:2.0px;stroke-linecap:butt;stroke-linejoin:miter;stroke-opacity:1"/>
<path class="bond-23 atom-23 atom-24" d="M 373.3,34.6 L 369.9,40.3" style="fill:none;fill-rule:evenodd;stroke:#000000;stroke-width:2.0px;stroke-linecap:butt;stroke-linejoin:miter;stroke-opacity:1"/>
<path class="bond-23 atom-23 atom-24" d="M 369.9,40.3 L 366.6,46.1" style="fill:none;fill-rule:evenodd;stroke:#FF0000;stroke-width:2.0px;stroke-linecap:butt;stroke-linejoin:miter;stroke-opacity:1"/>
<path class="bond-25 atom-25 atom-26" d="M 336.0,73.7 L 329.6,76.5" style="fill:none;fill-rule:evenodd;stroke:#0000FF;stroke-width:2.0px;stroke-linecap:butt;stroke-linejoin:miter;stroke-opacity:1"/>
<path class="bond-25 atom-25 atom-26" d="M 329.6,76.5 L 323.1,79.4" style="fill:none;fill-rule:evenodd;stroke:#000000;stroke-width:2.0px;stroke-linecap:butt;stroke-linejoin:miter;stroke-opacity:1"/>
<path class="bond-25 atom-25 atom-26" d="M 332.8,71.5 L 328.3,73.5" style="fill:none;fill-rule:evenodd;stroke:#0000FF;stroke-width:2.0px;stroke-linecap:butt;stroke-linejoin:miter;stroke-opacity:1"/>
<path class="bond-25 atom-25 atom-26" d="M 328.3,73.5 L 323.7,75.5" style="fill:none;fill-rule:evenodd;stroke:#000000;stroke-width:2.0px;stroke-linecap:butt;stroke-linejoin:miter;stroke-opacity:1"/>
<path class="atom-1" d="M 314.0 119.2 L 315.6 121.7 Q 315.7 121.9, 316.0 122.4 Q 316.2 122.8, 316.2 122.9 L 316.2 119.2 L 316.8 119.2 L 316.8 123.9 L 316.2 123.9 L 314.6 121.2 Q 314.4 120.9, 314.2 120.5 Q 314.0 120.1, 313.9 120.0 L 313.9 123.9 L 313.3 123.9 L 313.3 119.2 L 314.0 119.2 " fill="#0000FF"/>
<path class="atom-5" d="M 289.8 83.8 L 291.3 86.2 Q 291.5 86.5, 291.7 86.9 Q 292.0 87.4, 292.0 87.4 L 292.0 83.8 L 292.6 83.8 L 292.6 88.4 L 292.0 88.4 L 290.3 85.7 Q 290.1 85.4, 289.9 85.1 Q 289.7 84.7, 289.7 84.6 L 289.7 88.4 L 289.1 88.4 L 289.1 83.8 L 289.8 83.8 " fill="#0000FF"/>
<path class="atom-7" d="M 284.0 55.8 L 285.5 58.3 Q 285.7 58.5, 285.9 59.0 Q 286.2 59.4, 286.2 59.4 L 286.2 55.8 L 286.8 55.8 L 286.8 60.5 L 286.2 60.5 L 284.5 57.8 Q 284.3 57.5, 284.1 57.1 Q 283.9 56.7, 283.9 56.6 L 283.9 60.5 L 283.3 60.5 L 283.3 55.8 L 284.0 55.8 " fill="#0000FF"/>
<path class="atom-7" d="M 283.2 50.7 L 283.8 50.7 L 283.8 52.7 L 286.2 52.7 L 286.2 50.7 L 286.9 50.7 L 286.9 55.3 L 286.2 55.3 L 286.2 53.2 L 283.8 53.2 L 283.8 55.3 L 283.2 55.3 L 283.2 50.7 " fill="#0000FF"/>
<path class="atom-9" d="M 261.6 77.2 Q 261.6 76.1, 262.1 75.4 Q 262.7 74.8, 263.7 74.8 Q 264.8 74.8, 265.3 75.4 Q 265.9 76.1, 265.9 77.2 Q 265.9 78.3, 265.3 79.0 Q 264.7 79.6, 263.7 79.6 Q 262.7 79.6, 262.1 79.0 Q 261.6 78.3, 261.6 77.2 M 263.7 79.1 Q 264.4 79.1, 264.8 78.6 Q 265.2 78.1, 265.2 77.2 Q 265.2 76.3, 264.8 75.8 Q 264.4 75.3, 263.7 75.3 Q 263.0 75.3, 262.6 75.8 Q 262.2 76.3, 262.2 77.2 Q 262.2 78.1, 262.6 78.6 Q 263.0 79.1, 263.7 79.1 " fill="#FF0000"/>
<path class="atom-10" d="M 256.9 46.9 L 258.4 49.3 Q 258.6 49.6, 258.8 50.0 Q 259.0 50.5, 259.1 50.5 L 259.1 46.9 L 259.7 46.9 L 259.7 51.5 L 259.0 51.5 L 257.4 48.8 Q 257.2 48.5, 257.0 48.2 Q 256.8 47.8, 256.7 47.7 L 256.7 51.5 L 256.1 51.5 L 256.1 46.9 L 256.9 46.9 " fill="#0000FF"/>
<path class="atom-10" d="M 256.1 41.7 L 256.7 41.7 L 256.7 43.7 L 259.1 43.7 L 259.1 41.7 L 259.7 41.7 L 259.7 46.4 L 259.1 46.4 L 259.1 44.3 L 256.7 44.3 L 256.7 46.4 L 256.1 46.4 L 256.1 41.7 " fill="#0000FF"/>
<path class="atom-17" d="M 311.1 64.8 L 312.6 67.2 Q 312.8 67.5, 313.0 67.9 Q 313.3 68.4, 313.3 68.4 L 313.3 64.8 L 313.9 64.8 L 313.9 69.4 L 313.3 69.4 L 311.6 66.7 Q 311.4 66.4, 311.2 66.0 Q 311.0 65.7, 311.0 65.6 L 311.0 69.4 L 310.4 69.4 L 310.4 64.8 L 311.1 64.8 " fill="#0000FF"/>
<path class="atom-18" d="M 319.4 50.5 L 320.9 53.0 Q 321.1 53.2, 321.3 53.7 Q 321.6 54.1, 321.6 54.1 L 321.6 50.5 L 322.2 50.5 L 322.2 55.2 L 321.6 55.2 L 319.9 52.5 Q 319.7 52.2, 319.5 51.8 Q 319.3 51.4, 319.3 51.3 L 319.3 55.2 L 318.7 55.2 L 318.7 50.5 L 319.4 50.5 " fill="#0000FF"/>
<path class="atom-24" d="M 362.8 48.9 Q 362.8 47.7, 363.4 47.1 Q 363.9 46.5, 365.0 46.5 Q 366.0 46.5, 366.6 47.1 Q 367.1 47.7, 367.1 48.9 Q 367.1 50.0, 366.6 50.6 Q 366.0 51.3, 365.0 51.3 Q 363.9 51.3, 363.4 50.6 Q 362.8 50.0, 362.8 48.9 M 365.0 50.8 Q 365.7 50.8, 366.1 50.3 Q 366.5 49.8, 366.5 48.9 Q 366.5 48.0, 366.1 47.5 Q 365.7 47.0, 365.0 47.0 Q 364.3 47.0, 363.9 47.5 Q 363.5 47.9, 363.5 48.9 Q 363.5 49.8, 363.9 50.3 Q 364.3 50.8, 365.0 50.8 " fill="#FF0000"/>
<path class="atom-25" d="M 337.2 70.4 L 338.7 72.9 Q 338.9 73.1, 339.1 73.6 Q 339.4 74.0, 339.4 74.0 L 339.4 70.4 L 340.0 70.4 L 340.0 75.1 L 339.3 75.1 L 337.7 72.4 Q 337.5 72.1, 337.3 71.7 Q 337.1 71.3, 337.1 71.2 L 337.1 75.1 L 336.4 75.1 L 336.4 70.4 L 337.2 70.4 " fill="#0000FF"/>
<path class="atom-27" d="M 299.0 112.5 L 300.5 114.9 Q 300.7 115.2, 300.9 115.6 Q 301.2 116.1, 301.2 116.1 L 301.2 112.5 L 301.8 112.5 L 301.8 117.1 L 301.2 117.1 L 299.5 114.4 Q 299.3 114.1, 299.1 113.7 Q 298.9 113.4, 298.9 113.3 L 298.9 117.1 L 298.3 117.1 L 298.3 112.5 L 299.0 112.5 " fill="#0000FF"/>
<path d="M 267.3 188.1 Q 267.3 185.3, 268.6 183.8 Q 269.9 182.3, 272.4 182.3 Q 274.8 182.3, 276.0 184.0 L 275.0 184.8 Q 274.0 183.6, 272.4 183.6 Q 270.7 183.6, 269.8 184.8 Q 268.9 185.9, 268.9 188.1 Q 268.9 190.3, 269.8 191.5 Q 270.8 192.6, 272.6 192.6 Q 273.9 192.6, 275.3 191.9 L 275.8 193.1 Q 275.2 193.5, 274.3 193.7 Q 273.4 193.9, 272.4 193.9 Q 269.9 193.9, 268.6 192.4 Q 267.3 190.9, 267.3 188.1 " fill="#000000"/>
<path d="M 277.4 181.6 L 278.9 181.6 L 278.9 193.8 L 277.4 193.8 L 277.4 181.6 " fill="#000000"/>
<path d="M 287.1 185.6 L 287.1 193.8 L 285.9 193.8 L 285.7 192.6 Q 284.6 193.9, 282.9 193.9 Q 281.5 193.9, 280.8 193.2 Q 280.1 192.4, 280.1 191.0 L 280.1 185.6 L 281.6 185.6 L 281.6 190.9 Q 281.6 191.9, 282.0 192.3 Q 282.3 192.7, 283.2 192.7 Q 283.9 192.7, 284.6 192.4 Q 285.2 192.1, 285.6 191.4 L 285.6 185.6 L 287.1 185.6 " fill="#000000"/>
<path d="M 288.3 192.1 Q 289.1 192.4, 289.6 192.5 Q 290.1 192.7, 290.7 192.7 Q 291.4 192.7, 291.8 192.4 Q 292.2 192.1, 292.2 191.5 Q 292.2 191.1, 292.0 190.9 Q 291.8 190.6, 291.5 190.5 Q 291.2 190.4, 290.5 190.2 Q 290.4 190.2, 289.7 189.9 Q 288.9 189.6, 288.5 189.1 Q 288.2 188.6, 288.2 187.8 Q 288.2 186.8, 288.9 186.1 Q 289.7 185.4, 291.2 185.4 Q 291.8 185.4, 292.3 185.6 Q 292.9 185.7, 293.5 185.9 L 293.1 187.1 Q 292.6 186.9, 292.1 186.8 Q 291.7 186.7, 291.2 186.7 Q 290.4 186.7, 290.0 187.0 Q 289.7 187.3, 289.7 187.7 Q 289.7 188.2, 290.0 188.4 Q 290.3 188.6, 290.9 188.9 Q 291.1 188.9, 291.3 189.0 L 291.6 189.1 Q 292.3 189.3, 292.7 189.6 Q 293.1 189.8, 293.4 190.2 Q 293.7 190.7, 293.7 191.4 Q 293.7 192.6, 292.9 193.3 Q 292.0 193.9, 290.7 193.9 Q 289.9 193.9, 289.2 193.8 Q 288.6 193.6, 287.9 193.3 L 288.3 192.1 " fill="#000000"/>
<path d="M 294.2 186.7 L 294.2 185.6 L 295.7 185.6 L 296.0 183.2 L 297.1 183.2 L 297.1 185.6 L 299.6 185.6 L 299.6 186.7 L 297.1 186.7 L 297.1 191.3 Q 297.1 192.7, 298.3 192.7 Q 298.8 192.7, 299.5 192.5 L 299.8 193.5 Q 298.9 193.9, 298.0 193.9 Q 297.0 193.9, 296.3 193.2 Q 295.6 192.6, 295.6 191.3 L 295.6 186.7 L 294.2 186.7 " fill="#000000"/>
<path d="M 300.5 189.7 Q 300.5 187.6, 301.5 186.5 Q 302.5 185.4, 304.3 185.4 Q 306.2 185.4, 307.0 186.5 Q 307.8 187.6, 307.8 189.6 L 307.8 189.9 L 302.0 189.9 Q 302.1 191.3, 302.7 192.0 Q 303.3 192.7, 304.5 192.7 Q 305.1 192.7, 305.7 192.6 Q 306.3 192.4, 307.0 192.1 L 307.5 193.1 Q 306.6 193.5, 305.9 193.7 Q 305.2 193.9, 304.4 193.9 Q 302.5 193.9, 301.5 192.8 Q 300.5 191.7, 300.5 189.7 M 304.3 186.6 Q 303.4 186.6, 302.8 187.1 Q 302.3 187.7, 302.1 188.7 L 306.2 188.7 Q 306.1 187.6, 305.6 187.1 Q 305.2 186.6, 304.3 186.6 " fill="#000000"/>
<path d="M 310.3 185.6 L 310.5 186.7 Q 311.4 185.4, 312.8 185.4 Q 313.2 185.4, 313.9 185.6 L 313.6 186.9 Q 312.9 186.8, 312.5 186.8 Q 311.9 186.8, 311.4 187.0 Q 311.0 187.3, 310.6 187.9 L 310.6 193.8 L 309.1 193.8 L 309.1 185.6 L 310.3 185.6 " fill="#000000"/>
<path d="" fill="#000000"/>
<path d="M 318.7 184.6 Q 319.1 183.5, 320.1 182.9 Q 321.1 182.3, 322.5 182.3 Q 324.2 182.3, 325.1 183.3 Q 326.1 184.2, 326.1 185.8 Q 326.1 187.5, 324.8 189.1 Q 323.6 190.6, 321.1 192.5 L 326.3 192.5 L 326.3 193.8 L 318.7 193.8 L 318.7 192.7 Q 320.8 191.2, 322.0 190.1 Q 323.3 189.0, 323.9 188.0 Q 324.5 187.0, 324.5 185.9 Q 324.5 184.8, 323.9 184.2 Q 323.4 183.6, 322.5 183.6 Q 321.5 183.6, 320.9 184.0 Q 320.3 184.3, 319.9 185.2 L 318.7 184.6 " fill="#000000"/>
<path class="bond-0 atom-0 atom-1" d="M 582.2,65.9 L 577.3,61.6" style="fill:none;fill-rule:evenodd;stroke:#FF0000;stroke-width:2.0px;stroke-linecap:butt;stroke-linejoin:miter;stroke-opacity:1"/>
<path class="bond-0 atom-0 atom-1" d="M 577.3,61.6 L 572.4,57.3" style="fill:none;fill-rule:evenodd;stroke:#000000;stroke-width:2.0px;stroke-linecap:butt;stroke-linejoin:miter;stroke-opacity:1"/>
<path class="bond-1 atom-2 atom-1" d="M 560.8,61.7 L 560.5,60.9" style="fill:none;fill-rule:evenodd;stroke:#000000;stroke-width:1.0px;stroke-linecap:butt;stroke-linejoin:miter;stroke-opacity:1"/>
<path class="bond-1 atom-2 atom-1" d="M 564.8,60.8 L 564.3,59.2" style="fill:none;fill-rule:evenodd;stroke:#000000;stroke-width:1.0px;stroke-linecap:butt;stroke-linejoin:miter;stroke-opacity:1"/>
<path class="bond-1 atom-2 atom-1" d="M 568.9,59.8 L 568.1,57.5" style="fill:none;fill-rule:evenodd;stroke:#000000;stroke-width:1.0px;stroke-linecap:butt;stroke-linejoin:miter;stroke-opacity:1"/>
<path class="bond-1 atom-2 atom-1" d="M 572.9,58.9 L 571.8,55.7" style="fill:none;fill-rule:evenodd;stroke:#000000;stroke-width:1.0px;stroke-linecap:butt;stroke-linejoin:miter;stroke-opacity:1"/>
<path class="bond-2 atom-2 atom-3" d="M 556.8,62.7 L 551.3,58.8" style="fill:none;fill-rule:evenodd;stroke:#000000;stroke-width:2.0px;stroke-linecap:butt;stroke-linejoin:miter;stroke-opacity:1"/>
<path class="bond-2 atom-2 atom-3" d="M 551.3,58.8 L 545.8,55.0" style="fill:none;fill-rule:evenodd;stroke:#FF0000;stroke-width:2.0px;stroke-linecap:butt;stroke-linejoin:miter;stroke-opacity:1"/>
<path class="bond-24 atom-23 atom-2" d="M 551.9,78.4 L 556.8,62.7" style="fill:none;fill-rule:evenodd;stroke:#000000;stroke-width:2.0px;stroke-linecap:butt;stroke-linejoin:miter;stroke-opacity:1"/>
<path class="bond-3 atom-3 atom-4" d="M 540.7,55.1 L 535.4,59.1" style="fill:none;fill-rule:evenodd;stroke:#FF0000;stroke-width:2.0px;stroke-linecap:butt;stroke-linejoin:miter;stroke-opacity:1"/>
<path class="bond-3 atom-3 atom-4" d="M 535.4,59.1 L 530.1,63.1" style="fill:none;fill-rule:evenodd;stroke:#000000;stroke-width:2.0px;stroke-linecap:butt;stroke-linejoin:miter;stroke-opacity:1"/>
<path class="bond-4 atom-4 atom-5" d="M 525.7,61.2 L 525.4,62.3" style="fill:none;fill-rule:evenodd;stroke:#000000;stroke-width:1.0px;stroke-linecap:butt;stroke-linejoin:miter;stroke-opacity:1"/>
<path class="bond-4 atom-4 atom-5" d="M 521.4,59.3 L 520.7,61.4" style="fill:none;fill-rule:evenodd;stroke:#0000FF;stroke-width:1.0px;stroke-linecap:butt;stroke-linejoin:miter;stroke-opacity:1"/>
<path class="bond-4 atom-4 atom-5" d="M 517.0,57.4 L 516.0,60.5" style="fill:none;fill-rule:evenodd;stroke:#0000FF;stroke-width:1.0px;stroke-linecap:butt;stroke-linejoin:miter;stroke-opacity:1"/>
<path class="bond-20 atom-4 atom-21" d="M 530.1,63.1 L 535.5,78.7" style="fill:none;fill-rule:evenodd;stroke:#000000;stroke-width:2.0px;stroke-linecap:butt;stroke-linejoin:miter;stroke-opacity:1"/>
<path class="bond-5 atom-5 atom-6" d="M 513.4,55.5 L 511.2,49.1" style="fill:none;fill-rule:evenodd;stroke:#0000FF;stroke-width:2.0px;stroke-linecap:butt;stroke-linejoin:miter;stroke-opacity:1"/>
<path class="bond-5 atom-5 atom-6" d="M 511.2,49.1 L 509.0,42.7" style="fill:none;fill-rule:evenodd;stroke:#000000;stroke-width:2.0px;stroke-linecap:butt;stroke-linejoin:miter;stroke-opacity:1"/>
<path class="bond-25 atom-20 atom-5" d="M 501.2,68.2 L 506.7,64.1" style="fill:none;fill-rule:evenodd;stroke:#000000;stroke-width:2.0px;stroke-linecap:butt;stroke-linejoin:miter;stroke-opacity:1"/>
<path class="bond-25 atom-20 atom-5" d="M 506.7,64.1 L 512.2,59.9" style="fill:none;fill-rule:evenodd;stroke:#0000FF;stroke-width:2.0px;stroke-linecap:butt;stroke-linejoin:miter;stroke-opacity:1"/>
<path class="bond-6 atom-6 atom-7" d="M 509.0,42.7 L 501.8,42.8" style="fill:none;fill-rule:evenodd;stroke:#000000;stroke-width:2.0px;stroke-linecap:butt;stroke-linejoin:miter;stroke-opacity:1"/>
<path class="bond-6 atom-6 atom-7" d="M 501.8,42.8 L 494.7,42.9" style="fill:none;fill-rule:evenodd;stroke:#0000FF;stroke-width:2.0px;stroke-linecap:butt;stroke-linejoin:miter;stroke-opacity:1"/>
<path class="bond-6 atom-6 atom-7" d="M 506.9,46.0 L 501.9,46.1" style="fill:none;fill-rule:evenodd;stroke:#000000;stroke-width:2.0px;stroke-linecap:butt;stroke-linejoin:miter;stroke-opacity:1"/>
<path class="bond-6 atom-6 atom-7" d="M 501.9,46.1 L 496.9,46.2" style="fill:none;fill-rule:evenodd;stroke:#0000FF;stroke-width:2.0px;stroke-linecap:butt;stroke-linejoin:miter;stroke-opacity:1"/>
<path class="bond-7 atom-7 atom-8" d="M 491.7,45.7 L 489.7,52.2" style="fill:none;fill-rule:evenodd;stroke:#0000FF;stroke-width:2.0px;stroke-linecap:butt;stroke-linejoin:miter;stroke-opacity:1"/>
<path class="bond-7 atom-7 atom-8" d="M 489.7,52.2 L 487.7,58.7" style="fill:none;fill-rule:evenodd;stroke:#000000;stroke-width:2.0px;stroke-linecap:butt;stroke-linejoin:miter;stroke-opacity:1"/>
<path class="bond-8 atom-8 atom-9" d="M 487.7,58.7 L 472.7,65.7" style="fill:none;fill-rule:evenodd;stroke:#000000;stroke-width:2.0px;stroke-linecap:butt;stroke-linejoin:miter;stroke-opacity:1"/>
<path class="bond-8 atom-8 atom-9" d="M 486.8,62.8 L 476.4,67.6" style="fill:none;fill-rule:evenodd;stroke:#000000;stroke-width:2.0px;stroke-linecap:butt;stroke-linejoin:miter;stroke-opacity:1"/>
<path class="bond-26 atom-20 atom-8" d="M 501.2,68.2 L 487.7,58.7" style="fill:none;fill-rule:evenodd;stroke:#000000;stroke-width:2.0px;stroke-linecap:butt;stroke-linejoin:miter;stroke-opacity:1"/>
<path class="bond-9 atom-9 atom-10" d="M 472.7,65.7 L 467.1,61.7" style="fill:none;fill-rule:evenodd;stroke:#000000;stroke-width:2.0px;stroke-linecap:butt;stroke-linejoin:miter;stroke-opacity:1"/>
<path class="bond-9 atom-9 atom-10" d="M 467.1,61.7 L 461.4,57.8" style="fill:none;fill-rule:evenodd;stroke:#0000FF;stroke-width:2.0px;stroke-linecap:butt;stroke-linejoin:miter;stroke-opacity:1"/>
<path class="bond-16 atom-9 atom-17" d="M 472.7,65.7 L 472.1,72.5" style="fill:none;fill-rule:evenodd;stroke:#000000;stroke-width:2.0px;stroke-linecap:butt;stroke-linejoin:miter;stroke-opacity:1"/>
<path class="bond-16 atom-9 atom-17" d="M 472.1,72.5 L 471.5,79.4" style="fill:none;fill-rule:evenodd;stroke:#0000FF;stroke-width:2.0px;stroke-linecap:butt;stroke-linejoin:miter;stroke-opacity:1"/>
<path class="bond-10 atom-10 atom-11" d="M 457.0,57.2 L 450.7,60.2" style="fill:none;fill-rule:evenodd;stroke:#0000FF;stroke-width:2.0px;stroke-linecap:butt;stroke-linejoin:miter;stroke-opacity:1"/>
<path class="bond-10 atom-10 atom-11" d="M 450.7,60.2 L 444.3,63.2" style="fill:none;fill-rule:evenodd;stroke:#000000;stroke-width:2.0px;stroke-linecap:butt;stroke-linejoin:miter;stroke-opacity:1"/>
<path class="bond-11 atom-11 atom-12" d="M 444.3,63.2 L 430.8,53.7" style="fill:none;fill-rule:evenodd;stroke:#000000;stroke-width:2.0px;stroke-linecap:butt;stroke-linejoin:miter;stroke-opacity:1"/>
<path class="bond-27 atom-16 atom-11" d="M 442.8,79.6 L 444.3,63.2" style="fill:none;fill-rule:evenodd;stroke:#000000;stroke-width:2.0px;stroke-linecap:butt;stroke-linejoin:miter;stroke-opacity:1"/>
<path class="bond-12 atom-12 atom-13" d="M 430.8,53.7 L 415.8,60.7" style="fill:none;fill-rule:evenodd;stroke:#000000;stroke-width:2.0px;stroke-linecap:butt;stroke-linejoin:miter;stroke-opacity:1"/>
<path class="bond-13 atom-13 atom-14" d="M 415.8,60.7 L 414.4,77.1" style="fill:none;fill-rule:evenodd;stroke:#000000;stroke-width:2.0px;stroke-linecap:butt;stroke-linejoin:miter;stroke-opacity:1"/>
<path class="bond-14 atom-14 atom-15" d="M 414.4,77.1 L 427.9,86.6" style="fill:none;fill-rule:evenodd;stroke:#000000;stroke-width:2.0px;stroke-linecap:butt;stroke-linejoin:miter;stroke-opacity:1"/>
<path class="bond-15 atom-15 atom-16" d="M 427.9,86.6 L 442.8,79.6" style="fill:none;fill-rule:evenodd;stroke:#000000;stroke-width:2.0px;stroke-linecap:butt;stroke-linejoin:miter;stroke-opacity:1"/>
<path class="bond-17 atom-17 atom-18" d="M 473.5,83.6 L 479.1,87.6" style="fill:none;fill-rule:evenodd;stroke:#0000FF;stroke-width:2.0px;stroke-linecap:butt;stroke-linejoin:miter;stroke-opacity:1"/>
<path class="bond-17 atom-17 atom-18" d="M 479.1,87.6 L 484.8,91.6" style="fill:none;fill-rule:evenodd;stroke:#000000;stroke-width:2.0px;stroke-linecap:butt;stroke-linejoin:miter;stroke-opacity:1"/>
<path class="bond-17 atom-17 atom-18" d="M 477.1,82.1 L 481.0,84.9" style="fill:none;fill-rule:evenodd;stroke:#0000FF;stroke-width:2.0px;stroke-linecap:butt;stroke-linejoin:miter;stroke-opacity:1"/>
<path class="bond-17 atom-17 atom-18" d="M 481.0,84.9 L 485.0,87.7" style="fill:none;fill-rule:evenodd;stroke:#000000;stroke-width:2.0px;stroke-linecap:butt;stroke-linejoin:miter;stroke-opacity:1"/>
<path class="bond-18 atom-18 atom-19" d="M 484.8,91.6 L 491.2,88.6" style="fill:none;fill-rule:evenodd;stroke:#000000;stroke-width:2.0px;stroke-linecap:butt;stroke-linejoin:miter;stroke-opacity:1"/>
<path class="bond-18 atom-18 atom-19" d="M 491.2,88.6 L 497.5,85.6" style="fill:none;fill-rule:evenodd;stroke:#0000FF;stroke-width:2.0px;stroke-linecap:butt;stroke-linejoin:miter;stroke-opacity:1"/>
<path class="bond-19 atom-19 atom-20" d="M 500.0,81.9 L 500.6,75.0" style="fill:none;fill-rule:evenodd;stroke:#0000FF;stroke-width:2.0px;stroke-linecap:butt;stroke-linejoin:miter;stroke-opacity:1"/>
<path class="bond-19 atom-19 atom-20" d="M 500.6,75.0 L 501.2,68.2" style="fill:none;fill-rule:evenodd;stroke:#000000;stroke-width:2.0px;stroke-linecap:butt;stroke-linejoin:miter;stroke-opacity:1"/>
<path class="bond-19 atom-19 atom-20" d="M 496.9,79.5 L 497.3,74.7" style="fill:none;fill-rule:evenodd;stroke:#0000FF;stroke-width:2.0px;stroke-linecap:butt;stroke-linejoin:miter;stroke-opacity:1"/>
<path class="bond-19 atom-19 atom-20" d="M 497.3,74.7 L 497.7,70.0" style="fill:none;fill-rule:evenodd;stroke:#000000;stroke-width:2.0px;stroke-linecap:butt;stroke-linejoin:miter;stroke-opacity:1"/>
<path class="bond-21 atom-21 atom-22" d="M 535.5,78.7 L 531.0,83.6 L 532.4,84.5 Z" style="fill:#000000;fill-rule:evenodd;fill-opacity:1;stroke:#000000;stroke-width:2.0px;stroke-linecap:butt;stroke-linejoin:miter;stroke-opacity:1;"/>
<path class="bond-21 atom-21 atom-22" d="M 531.0,83.6 L 529.3,90.4 L 526.6,88.5 Z" style="fill:#FF0000;fill-rule:evenodd;fill-opacity:1;stroke:#FF0000;stroke-width:2.0px;stroke-linecap:butt;stroke-linejoin:miter;stroke-opacity:1;"/>
<path class="bond-21 atom-21 atom-22" d="M 531.0,83.6 L 532.4,84.5 L 529.3,90.4 Z" style="fill:#FF0000;fill-rule:evenodd;fill-opacity:1;stroke:#FF0000;stroke-width:2.0px;stroke-linecap:butt;stroke-linejoin:miter;stroke-opacity:1;"/>
<path class="bond-22 atom-21 atom-23" d="M 535.5,78.7 L 551.9,78.4" style="fill:none;fill-rule:evenodd;stroke:#000000;stroke-width:2.0px;stroke-linecap:butt;stroke-linejoin:miter;stroke-opacity:1"/>
<path class="bond-23 atom-23 atom-24" d="M 551.9,78.4 L 555.2,84.1 L 556.5,83.1 Z" style="fill:#000000;fill-rule:evenodd;fill-opacity:1;stroke:#000000;stroke-width:2.0px;stroke-linecap:butt;stroke-linejoin:miter;stroke-opacity:1;"/>
<path class="bond-23 atom-23 atom-24" d="M 555.2,84.1 L 561.1,87.8 L 558.5,89.8 Z" style="fill:#FF0000;fill-rule:evenodd;fill-opacity:1;stroke:#FF0000;stroke-width:2.0px;stroke-linecap:butt;stroke-linejoin:miter;stroke-opacity:1;"/>
<path class="bond-23 atom-23 atom-24" d="M 555.2,84.1 L 556.5,83.1 L 561.1,87.8 Z" style="fill:#FF0000;fill-rule:evenodd;fill-opacity:1;stroke:#FF0000;stroke-width:2.0px;stroke-linecap:butt;stroke-linejoin:miter;stroke-opacity:1;"/>
<path class="atom-0" d="M 582.7 68.1 Q 582.7 67.0, 583.2 66.4 Q 583.8 65.8, 584.8 65.8 Q 585.8 65.8, 586.4 66.4 Q 586.9 67.0, 586.9 68.1 Q 586.9 69.3, 586.4 69.9 Q 585.8 70.6, 584.8 70.6 Q 583.8 70.6, 583.2 69.9 Q 582.7 69.3, 582.7 68.1 M 584.8 70.0 Q 585.5 70.0, 585.9 69.6 Q 586.3 69.1, 586.3 68.1 Q 586.3 67.2, 585.9 66.8 Q 585.5 66.3, 584.8 66.3 Q 584.1 66.3, 583.7 66.8 Q 583.3 67.2, 583.3 68.1 Q 583.3 69.1, 583.7 69.6 Q 584.1 70.0, 584.8 70.0 " fill="#FF0000"/>
<path class="atom-0" d="M 587.5 65.8 L 588.1 65.8 L 588.1 67.8 L 590.5 67.8 L 590.5 65.8 L 591.2 65.8 L 591.2 70.5 L 590.5 70.5 L 590.5 68.3 L 588.1 68.3 L 588.1 70.5 L 587.5 70.5 L 587.5 65.8 " fill="#FF0000"/>
<path class="atom-3" d="M 541.1 53.2 Q 541.1 52.1, 541.7 51.5 Q 542.2 50.8, 543.3 50.8 Q 544.3 50.8, 544.9 51.5 Q 545.4 52.1, 545.4 53.2 Q 545.4 54.3, 544.9 55.0 Q 544.3 55.6, 543.3 55.6 Q 542.2 55.6, 541.7 55.0 Q 541.1 54.4, 541.1 53.2 M 543.3 55.1 Q 544.0 55.1, 544.4 54.6 Q 544.8 54.1, 544.8 53.2 Q 544.8 52.3, 544.4 51.8 Q 544.0 51.4, 543.3 51.4 Q 542.6 51.4, 542.2 51.8 Q 541.8 52.3, 541.8 53.2 Q 541.8 54.2, 542.2 54.6 Q 542.6 55.1, 543.3 55.1 " fill="#FF0000"/>
<path class="atom-5" d="M 513.3 55.9 L 514.8 58.4 Q 515.0 58.7, 515.2 59.1 Q 515.5 59.6, 515.5 59.6 L 515.5 55.9 L 516.1 55.9 L 516.1 60.6 L 515.5 60.6 L 513.8 57.9 Q 513.6 57.6, 513.4 57.2 Q 513.2 56.9, 513.2 56.8 L 513.2 60.6 L 512.6 60.6 L 512.6 55.9 L 513.3 55.9 " fill="#0000FF"/>
<path class="atom-7" d="M 491.5 40.6 L 493.0 43.1 Q 493.1 43.4, 493.4 43.8 Q 493.6 44.2, 493.6 44.3 L 493.6 40.6 L 494.3 40.6 L 494.3 45.3 L 493.6 45.3 L 492.0 42.6 Q 491.8 42.3, 491.6 41.9 Q 491.4 41.6, 491.3 41.4 L 491.3 45.3 L 490.7 45.3 L 490.7 40.6 L 491.5 40.6 " fill="#0000FF"/>
<path class="atom-10" d="M 458.2 53.9 L 459.7 56.4 Q 459.9 56.6, 460.1 57.1 Q 460.4 57.5, 460.4 57.5 L 460.4 53.9 L 461.0 53.9 L 461.0 58.6 L 460.4 58.6 L 458.7 55.9 Q 458.5 55.5, 458.3 55.2 Q 458.1 54.8, 458.1 54.7 L 458.1 58.6 L 457.5 58.6 L 457.5 53.9 L 458.2 53.9 " fill="#0000FF"/>
<path class="atom-10" d="M 457.4 48.8 L 458.0 48.8 L 458.0 50.7 L 460.4 50.7 L 460.4 48.8 L 461.1 48.8 L 461.1 53.4 L 460.4 53.4 L 460.4 51.3 L 458.0 51.3 L 458.0 53.4 L 457.4 53.4 L 457.4 48.8 " fill="#0000FF"/>
<path class="atom-17" d="M 470.2 79.8 L 471.8 82.3 Q 471.9 82.5, 472.2 82.9 Q 472.4 83.4, 472.4 83.4 L 472.4 79.8 L 473.1 79.8 L 473.1 84.5 L 472.4 84.5 L 470.8 81.7 Q 470.6 81.4, 470.4 81.1 Q 470.2 80.7, 470.1 80.6 L 470.1 84.5 L 469.5 84.5 L 469.5 79.8 L 470.2 79.8 " fill="#0000FF"/>
<path class="atom-19" d="M 498.7 82.3 L 500.2 84.8 Q 500.4 85.0, 500.6 85.4 Q 500.9 85.9, 500.9 85.9 L 500.9 82.3 L 501.5 82.3 L 501.5 87.0 L 500.9 87.0 L 499.2 84.3 Q 499.0 83.9, 498.8 83.6 Q 498.6 83.2, 498.6 83.1 L 498.6 87.0 L 498.0 87.0 L 498.0 82.3 L 498.7 82.3 " fill="#0000FF"/>
<path class="atom-22" d="M 519.9 89.9 L 520.5 89.9 L 520.5 91.9 L 522.9 91.9 L 522.9 89.9 L 523.5 89.9 L 523.5 94.6 L 522.9 94.6 L 522.9 92.4 L 520.5 92.4 L 520.5 94.6 L 519.9 94.6 L 519.9 89.9 " fill="#FF0000"/>
<path class="atom-22" d="M 523.9 92.2 Q 523.9 91.1, 524.4 90.5 Q 525.0 89.8, 526.0 89.8 Q 527.0 89.8, 527.6 90.5 Q 528.1 91.1, 528.1 92.2 Q 528.1 93.4, 527.6 94.0 Q 527.0 94.6, 526.0 94.6 Q 525.0 94.6, 524.4 94.0 Q 523.9 93.4, 523.9 92.2 M 526.0 94.1 Q 526.7 94.1, 527.1 93.6 Q 527.5 93.2, 527.5 92.2 Q 527.5 91.3, 527.1 90.8 Q 526.7 90.4, 526.0 90.4 Q 525.3 90.4, 524.9 90.8 Q 524.5 91.3, 524.5 92.2 Q 524.5 93.2, 524.9 93.6 Q 525.3 94.1, 526.0 94.1 " fill="#FF0000"/>
<path class="atom-24" d="M 559.7 91.6 Q 559.7 90.5, 560.3 89.9 Q 560.8 89.2, 561.9 89.2 Q 562.9 89.2, 563.5 89.9 Q 564.0 90.5, 564.0 91.6 Q 564.0 92.7, 563.4 93.4 Q 562.9 94.0, 561.9 94.0 Q 560.8 94.0, 560.3 93.4 Q 559.7 92.7, 559.7 91.6 M 561.9 93.5 Q 562.6 93.5, 563.0 93.0 Q 563.3 92.5, 563.3 91.6 Q 563.3 90.7, 563.0 90.2 Q 562.6 89.8, 561.9 89.8 Q 561.2 89.8, 560.8 90.2 Q 560.4 90.7, 560.4 91.6 Q 560.4 92.6, 560.8 93.0 Q 561.2 93.5, 561.9 93.5 " fill="#FF0000"/>
<path class="atom-24" d="M 564.6 89.3 L 565.2 89.3 L 565.2 91.3 L 567.6 91.3 L 567.6 89.3 L 568.2 89.3 L 568.2 94.0 L 567.6 94.0 L 567.6 91.8 L 565.2 91.8 L 565.2 94.0 L 564.6 94.0 L 564.6 89.3 " fill="#FF0000"/>
<path d="M 467.3 188.1 Q 467.3 185.3, 468.6 183.8 Q 469.9 182.3, 472.4 182.3 Q 474.8 182.3, 476.0 184.0 L 475.0 184.8 Q 474.1 183.6, 472.4 183.6 Q 470.7 183.6, 469.8 184.8 Q 468.9 185.9, 468.9 188.1 Q 468.9 190.3, 469.9 191.5 Q 470.8 192.6, 472.6 192.6 Q 473.9 192.6, 475.3 191.9 L 475.8 193.1 Q 475.2 193.5, 474.3 193.7 Q 473.4 193.9, 472.4 193.9 Q 469.9 193.9, 468.6 192.4 Q 467.3 190.9, 467.3 188.1 " fill="#000000"/>
<path d="M 477.4 181.6 L 478.9 181.6 L 478.9 193.8 L 477.4 193.8 L 477.4 181.6 " fill="#000000"/>
<path d="M 487.1 185.5 L 487.1 193.8 L 485.9 193.8 L 485.7 192.6 Q 484.6 193.9, 482.9 193.9 Q 481.5 193.9, 480.8 193.2 Q 480.1 192.4, 480.1 191.0 L 480.1 185.5 L 481.6 185.5 L 481.6 190.9 Q 481.6 191.8, 482.0 192.3 Q 482.4 192.7, 483.2 192.7 Q 484.0 192.7, 484.6 192.4 Q 485.2 192.0, 485.6 191.4 L 485.6 185.5 L 487.1 185.5 " fill="#000000"/>
<path d="M 488.4 192.1 Q 489.1 192.4, 489.6 192.5 Q 490.1 192.7, 490.7 192.7 Q 491.4 192.7, 491.8 192.4 Q 492.2 192.1, 492.2 191.5 Q 492.2 191.1, 492.0 190.9 Q 491.8 190.6, 491.5 190.5 Q 491.3 190.4, 490.5 190.2 Q 490.4 190.1, 489.7 189.9 Q 489.0 189.6, 488.6 189.1 Q 488.2 188.5, 488.2 187.7 Q 488.2 186.7, 488.9 186.1 Q 489.7 185.4, 491.2 185.4 Q 491.8 185.4, 492.4 185.5 Q 492.9 185.7, 493.5 185.9 L 493.1 187.1 Q 492.6 186.9, 492.1 186.8 Q 491.7 186.6, 491.2 186.6 Q 490.4 186.6, 490.1 187.0 Q 489.7 187.2, 489.7 187.7 Q 489.7 188.2, 490.0 188.4 Q 490.3 188.6, 491.0 188.8 Q 491.1 188.9, 491.3 189.0 L 491.7 189.1 Q 492.3 189.3, 492.7 189.5 Q 493.2 189.8, 493.4 190.2 Q 493.7 190.7, 493.7 191.4 Q 493.7 192.6, 492.9 193.3 Q 492.0 193.9, 490.7 193.9 Q 489.9 193.9, 489.2 193.8 Q 488.6 193.6, 487.9 193.3 L 488.4 192.1 " fill="#000000"/>
<path d="M 494.2 186.7 L 494.2 185.5 L 495.8 185.5 L 496.0 183.1 L 497.1 183.1 L 497.1 185.5 L 499.6 185.5 L 499.6 186.7 L 497.1 186.7 L 497.1 191.2 Q 497.1 192.7, 498.3 192.7 Q 498.8 192.7, 499.5 192.4 L 499.8 193.5 Q 498.9 193.9, 498.1 193.9 Q 497.0 193.9, 496.3 193.2 Q 495.6 192.6, 495.6 191.3 L 495.6 186.7 L 494.2 186.7 " fill="#000000"/>
<path d="M 500.5 189.6 Q 500.5 187.6, 501.5 186.5 Q 502.5 185.4, 504.4 185.4 Q 506.2 185.4, 507.0 186.5 Q 507.8 187.6, 507.8 189.6 L 507.8 189.8 L 502.0 189.8 Q 502.1 191.2, 502.7 192.0 Q 503.3 192.7, 504.5 192.7 Q 505.1 192.7, 505.7 192.6 Q 506.3 192.4, 507.0 192.1 L 507.5 193.1 Q 506.7 193.5, 505.9 193.7 Q 505.2 193.9, 504.4 193.9 Q 502.6 193.9, 501.5 192.8 Q 500.5 191.7, 500.5 189.6 M 504.4 186.6 Q 503.4 186.6, 502.8 187.1 Q 502.3 187.7, 502.1 188.7 L 506.2 188.7 Q 506.1 187.6, 505.6 187.1 Q 505.2 186.6, 504.4 186.6 " fill="#000000"/>
<path d="M 510.4 185.5 L 510.5 186.7 Q 511.4 185.4, 512.8 185.4 Q 513.3 185.4, 513.9 185.6 L 513.6 186.9 Q 512.9 186.7, 512.6 186.7 Q 511.9 186.7, 511.4 187.0 Q 511.0 187.3, 510.7 187.9 L 510.7 193.8 L 509.2 193.8 L 509.2 185.5 L 510.4 185.5 " fill="#000000"/>
<path d="" fill="#000000"/>
<path d="M 524.0 187.8 Q 525.1 188.1, 525.6 188.8 Q 526.2 189.5, 526.2 190.7 Q 526.2 191.6, 525.7 192.4 Q 525.2 193.1, 524.3 193.5 Q 523.4 193.9, 522.3 193.9 Q 521.1 193.9, 520.2 193.5 Q 519.3 193.1, 518.5 192.2 L 519.5 191.3 Q 520.2 192.1, 520.8 192.4 Q 521.3 192.6, 522.3 192.6 Q 523.3 192.6, 523.9 192.1 Q 524.6 191.5, 524.6 190.6 Q 524.6 189.5, 523.9 189.0 Q 523.3 188.5, 521.9 188.5 L 521.1 188.5 L 521.1 187.3 L 521.8 187.3 Q 523.0 187.3, 523.7 186.8 Q 524.3 186.2, 524.3 185.2 Q 524.3 184.5, 523.8 184.0 Q 523.2 183.6, 522.3 183.6 Q 521.4 183.6, 520.8 183.9 Q 520.2 184.3, 519.7 185.1 L 518.6 184.5 Q 519.0 183.6, 520.0 183.0 Q 521.0 182.3, 522.3 182.3 Q 524.0 182.3, 524.9 183.1 Q 525.9 183.9, 525.9 185.2 Q 525.9 186.1, 525.4 186.8 Q 524.9 187.4, 524.0 187.8 " fill="#000000"/>
</svg>